<svg xmlns="http://www.w3.org/2000/svg" viewBox="0 0 495.19 208.4"><defs><style>.cls-1{fill:#fbf4d9;}.cls-2{fill:#e1221c;}.cls-3{fill:#007749;}</style></defs><title>MSI1810_05_MASTERLOGO_RGB_GER_V1</title><g id="Graphics"><path class="cls-1" d="M3,28.37V205.3a736.49,736.49,0,0,1,490.48,0V28.37Z"/><rect class="cls-2" x="3" y="2.25" width="490.48" height="26.11"/><path class="cls-3" d="M367.33,78.48c-19.24-1.56-33.59,12-33.58,29.36v.22c0,17.37,14.22,31.69,33.34,33.23s33.45-10.68,33.46-28V113C400.54,95.7,386.45,80,367.33,78.48Zm15.42,33.11c0,8.9-5.76,15.8-15.43,15-9.34-.79-15.69-8.94-15.68-17.85v-.22c0-8.89,5.79-16.09,15.46-15.28,9.33.8,15.65,9.26,15.65,18.16Z"/><path class="cls-3" d="M117.38,68.15c0-3.23-.16-10.31-8-9.4s-15.67,2-18.91,2.53c2.32,7-3.55,24.26-13.37,44.07A199.74,199.74,0,0,0,60.82,73.66C58.1,69.62,55,67,48.39,68.25S35.25,70.8,32.67,71.34c2.3,3.34,3.4,4.7,3.4,18.85v64.29s14.78-3.24,18.33-3.94v-48c9.29,11.57,21.77,38.61,21.77,38.61,9.72-14.75,18.49-31.74,23.1-44.47v30.93c0,10.82,1.79,15,5.84,14.46,4.75-.65,10.64-1.5,14.46-2-1.25-2.27-2.19-6-2.19-12.2Z"/><path class="cls-3" d="M141.83,72.41c5.38-.55,9.74-5,9.74-10s-4.36-8.67-9.74-8.11-9.72,5.12-9.72,10.13S136.46,73,141.83,72.41Z"/><path class="cls-3" d="M150.75,86.71c0-9.18-3.47-8.87-6.9-8.55s-9.16,1-13.58,1.58c2,2.7,2.62,9.35,2.62,18.05v31.67c0,4.75,1.87,8.49,6.12,8s10.85-1,13.79-1.37c-1.31-1.74-2.05-5.22-2.05-11.08Z"/><path class="cls-3" d="M451.57,87.22c5.37.55,9.72-3,9.72-8s-4.35-9.57-9.72-10.13-9.73,3.1-9.73,8.11S446.2,86.66,451.57,87.22Z"/><path class="cls-3" d="M460.33,144.07V104.81c0-9.18-3.46-10-6.9-10.75s-8.78-1.84-13.19-2.61c2,3.32,2.61,10.17,2.61,18.88v32.61c0,4.75,1.71,9,6,9.89s11.25,2.38,14.19,3C461.69,153.67,460.33,149.93,460.33,144.07Z"/><path class="cls-3" d="M428.11,74.66c0-9.18-3.35-9.82-6.79-10.46s-9.16-1.58-13.58-2.17c2,3.24,2.51,10.07,2.51,18.77v56.25c0,4.75,1.81,8.94,6.07,9.64s11.62,2,14.57,2.51c-1.31-2.1-2.78-5.79-2.78-11.64Z"/><path class="cls-3" d="M325.36,99.2c5.95-1,6.62-6.7,3.3-13.17-4.62-9-14.54-13-26.38-13.47-18.38-.79-33.63,12.26-33.18,31.94.4,17.17,13.67,30.18,32.28,31,13.53.62,23.39-3.37,27.93-9.08l-10.85-11.13A19.1,19.1,0,0,1,304.3,121c-10.24-.31-17-7.84-17-17.25s6.44-16.14,15.11-16.33c9.36-.2,13.09,7.06,12.66,13.06C317.87,100.25,322.24,99.7,325.36,99.2Z"/><path class="cls-3" d="M211.31,70.7c-15.57.68-26,6.38-28.18,16.12V84.54c0-9.19-3.47-9-6.9-8.81s-8.78.6-13.2,1.07c2,2.77,2.62,9.44,2.62,18.15v31.66c0,4.76,1.7,8.35,6,8s10-.76,13-.95c-1.25-3.18-1.88-7.35-1.88-13a68,68,0,0,1,2-17.89c2.44-10.06,12-15.37,20.18-16.75Z"/><path class="cls-3" d="M261.25,97.3c.47-21.79-19.83-27.63-40-26.85L215.18,85c10.52-1.21,27.31-.72,28.94,13.35-5.93-3.23-11.23-4.14-18.12-4.14-16,0-23.76,9.89-23.76,20.87,0,8.49,5.64,19,21.1,19,9.72,0,16.9-3.13,21.62-8.52,0,3,.7,6.22,5.71,6.22,5.6,0,10.11.07,13.32.15-2.58-3.73-2.74-7.2-2.74-12.36C261.25,119.29,261.14,102.38,261.25,97.3Zm-30.71,24.57c-5.51.41-11.07-2-11.36-7.13-.31-5.72,4.4-8.95,10.32-9.1,6.39-.16,11.07,1.33,14.72,4.1C243.36,119,234.62,121.56,230.54,121.87Z"/><path class="cls-2" d="M223.84,63.57s5.76-15,6.58-17.14c1.26-3.35,3.1-4.27,6.52-3.69s15.61,3,15.61,3-13.12,14-14.81,15.75a6.78,6.78,0,0,1-4.25,1.82Z"/><polygon class="cls-3" points="469.63 150.43 469.63 150.43 469.63 150.43 469.63 150.43"/><path class="cls-3" d="M473.68,154.76h0a1,1,0,0,1,.37.93v.43h0l0,.17v.06h0v.2l1.34,0-.16-.35h0s0-.07,0-.18h0v0c0-.09,0-.21,0-.34v-.36h0a1.5,1.5,0,0,0-.3-.86h0a1.13,1.13,0,0,0-.37-.35l.18-.08h0a1.26,1.26,0,0,0,.57-1.14,1.44,1.44,0,0,0-.88-1.44,3.8,3.8,0,0,0-1.41-.2l-1.92,0v5.32h1.26v-1.94h.49a1.77,1.77,0,0,1,.84.13Zm-1.33-1.14v-1.38h.53a1.92,1.92,0,0,1,.93.16.37.37,0,0,1,.17.18.77.77,0,0,1,.06.34v0h0v0a.54.54,0,0,1-.37.53h0a2.34,2.34,0,0,1-.74.09Z"/><path class="cls-3" d="M476.55,157.43A4.67,4.67,0,0,0,478,154v0h0a4.75,4.75,0,0,0-1.46-3.47h0a4.72,4.72,0,0,0-3.46-1.46H473a4.54,4.54,0,0,0-3.36,1.4,4.65,4.65,0,0,0-1.42,3.38v.07h0a4.8,4.8,0,0,0,1.44,3.5h0a4.69,4.69,0,0,0,3.44,1.47h.05a4.64,4.64,0,0,0,3.41-1.42Zm-3.46.36a3.72,3.72,0,0,1-2.7-1.16,3.79,3.79,0,0,1-1.12-2.74v0a3.61,3.61,0,0,1,1.11-2.68h0a3.51,3.51,0,0,1,2.56-1.09h.12a3.59,3.59,0,0,1,2.69,1.14h0a3.73,3.73,0,0,1,1.13,2.71v0a3.67,3.67,0,0,1-1.1,2.7h0a3.64,3.64,0,0,1-2.69,1.11Z"/></g></svg>